<svg width="32" height="32" viewBox="0 0 32 32" fill="none" xmlns="http://www.w3.org/2000/svg">
<path fill-rule="evenodd" clip-rule="evenodd" d="M32 16C32 18.5544 31.4014 20.969 30.3369 23.1111H17C19.4627 19.7584 22 15.6984 22 11.5556C22 6.22432 17.9385 1.73631 12.4158 0.403015C13.5681 0.139299 14.7678 0 16 0C24.8366 0 32 7.16345 32 16ZM18 11.5556C18 7.13728 13.9706 3.55556 8.99999 3.55556C2.34935 3.55556 0 11.1174 0 16C0 24.8366 7.16344 32 16 32C20.7386 32 24.9962 29.94 27.9259 26.6667H8.99999C9.35182 26.2679 9.72024 25.857 10.0987 25.4349C13.6156 21.5122 18 16.622 18 11.5556Z" fill="#7859CF"/>
</svg>
